<svg xmlns="http://www.w3.org/2000/svg" viewBox="0 0 64 64" fill="none">
  <defs>
    <linearGradient id="g" x1="0%" y1="0%" x2="100%" y2="100%">
      <stop offset="0%" stop-color="#c084fc"/>
      <stop offset="100%" stop-color="#7c3aed"/>
    </linearGradient>
  </defs>

  <!-- Background circle -->
  <circle cx="32" cy="32" r="32" fill="url(#g)"/>

  <!-- Water base -->
  <ellipse cx="32" cy="54" rx="14" ry="3" fill="white" opacity="0.2"/>

  <!-- Stem -->
  <path d="M32 52 Q30 44 32 36" stroke="white" stroke-width="2" stroke-linecap="round" fill="none" opacity="0.8"/>

  <!-- Left outer petal -->
  <path d="M32 36 Q18 30 17 19 Q24 23 32 36Z" fill="white" opacity="0.45"/>
  <!-- Right outer petal -->
  <path d="M32 36 Q46 30 47 19 Q40 23 32 36Z" fill="white" opacity="0.45"/>

  <!-- Left middle petal -->
  <path d="M32 36 Q20 26 22 13 Q28 20 32 36Z" fill="white" opacity="0.65"/>
  <!-- Right middle petal -->
  <path d="M32 36 Q44 26 42 13 Q36 20 32 36Z" fill="white" opacity="0.65"/>

  <!-- Center petal -->
  <path d="M32 36 Q26 20 32 9 Q38 20 32 36Z" fill="white" opacity="0.95"/>

  <!-- Center dot -->
  <circle cx="32" cy="36" r="3" fill="#7c3aed"/>
  <circle cx="32" cy="36" r="1.5" fill="white"/>
</svg>